<svg version="1.1" id="Layer_1" xmlns="http://www.w3.org/2000/svg" xmlns:xlink="http://www.w3.org/1999/xlink" x="0px" y="0px"
	 width="100%" viewBox="0 0 64 64" enable-background="new 0 0 64 64" xml:space="preserve">
<path fill="#000000" opacity="1.000000" stroke="none" 
	d="
M44.000557,65.000000 
	C29.333736,65.000000 15.167089,65.000000 1.000331,65.000000 
	C1.000221,43.666843 1.000221,22.333683 1.000110,1.000394 
	C22.333130,1.000262 43.666260,1.000262 64.999542,1.000131 
	C64.999695,22.333101 64.999695,43.666203 64.999847,64.999649 
	C58.166912,65.000000 51.333820,65.000000 44.000557,65.000000 
M49.305527,19.719683 
	C47.570763,19.202387 45.835999,18.685091 43.258209,18.084391 
	C36.526718,20.427483 30.211397,17.704174 23.812754,16.389772 
	C15.043352,14.588377 5.133243,21.088825 3.131568,30.164927 
	C1.230690,38.783993 7.011161,48.799538 15.161201,51.008091 
	C27.417076,54.329277 44.857948,47.954128 53.644176,36.776848 
	C54.486774,34.517300 55.329369,32.257748 56.951557,29.994364 
	C59.661743,30.127659 61.578423,29.682255 60.699238,26.122019 
	C60.447411,25.102272 61.391918,23.825470 61.641254,22.635803 
	C62.205265,19.944740 62.677914,17.234528 63.187717,14.532103 
	C62.255882,13.920918 61.324051,13.309733 60.392220,12.698548 
	C59.970753,13.899874 59.483665,15.083138 59.146645,16.307707 
	C58.822182,17.486620 58.652866,18.708231 58.366344,20.159498 
	C52.310966,14.859838 51.364826,14.861175 49.305527,19.719683 
z"/>
<path fill="#444B54" opacity="1.000000" stroke="none" 
	d="
M53.073994,37.149864 
	C44.857948,47.954128 27.417076,54.329277 15.161201,51.008091 
	C7.011161,48.799538 1.230690,38.783993 3.131568,30.164927 
	C5.133243,21.088825 15.043352,14.588377 23.812754,16.389772 
	C30.211397,17.704174 36.526718,20.427483 43.680107,18.492596 
	C44.101730,19.878345 44.101460,20.855894 43.680626,21.889547 
	C37.510841,21.676722 31.761623,21.407789 25.595829,21.066097 
	C19.114716,18.757689 14.291550,20.003881 9.571930,25.132919 
	C8.738158,29.574644 3.950419,33.123108 7.197180,38.340225 
	C9.788272,41.433655 12.347731,44.178215 15.296456,47.078583 
	C23.390903,48.933430 30.880188,48.332214 37.842628,44.522202 
	C42.033249,42.229004 45.940403,39.417809 50.229858,36.951881 
	C51.347847,37.092869 52.210918,37.121365 53.073994,37.149864 
z"/>
<path fill="#444B53" opacity="1.000000" stroke="none" 
	d="
M49.998581,19.829714 
	C51.364826,14.861175 52.310966,14.859838 58.366344,20.159498 
	C58.652866,18.708231 58.822182,17.486620 59.146645,16.307707 
	C59.483665,15.083138 59.970753,13.899874 60.392220,12.698548 
	C61.324051,13.309733 62.255882,13.920918 63.187717,14.532103 
	C62.677914,17.234528 62.205265,19.944740 61.641254,22.635803 
	C61.391918,23.825470 60.447411,25.102272 60.699238,26.122019 
	C61.578423,29.682255 59.661743,30.127659 56.507710,29.606255 
	C55.888149,24.896053 54.144325,21.587019 49.998581,19.829714 
z"/>
<path fill="#019D95" opacity="1.000000" stroke="none" 
	d="
M49.652054,19.774698 
	C54.144325,21.587019 55.888149,24.896053 56.117912,29.608173 
	C55.329369,32.257748 54.486774,34.517300 53.359085,36.963356 
	C52.210918,37.121365 51.347847,37.092869 50.278496,36.601906 
	C54.119797,29.603117 54.132885,27.863222 49.955334,23.692863 
	C47.865162,22.866417 45.983177,22.349930 44.101192,21.833441 
	C44.101460,20.855894 44.101730,19.878345 44.101616,18.534298 
	C45.835999,18.685091 47.570763,19.202387 49.652054,19.774698 
z"/>
<path fill="#755DA5" opacity="1.000000" stroke="none" 
	d="
M43.680626,21.889547 
	C45.983177,22.349930 47.865162,22.866417 49.760983,24.001564 
	C47.844704,32.051289 42.178989,35.272511 35.444328,37.162350 
	C30.532936,38.540546 25.613972,40.028908 20.597200,40.849716 
	C16.790388,41.472553 14.954906,43.159668 14.907190,46.922779 
	C12.347731,44.178215 9.788272,41.433655 7.572254,38.324459 
	C16.472046,36.446011 19.813898,32.368958 20.449818,23.081413 
	C22.557489,22.400114 24.284948,21.769485 26.012407,21.138857 
	C31.761623,21.407789 37.510841,21.676722 43.680626,21.889547 
z"/>
<path fill="#4B376B" opacity="1.000000" stroke="none" 
	d="
M15.296456,47.078583 
	C14.954906,43.159668 16.790388,41.472553 20.597200,40.849716 
	C25.613972,40.028908 30.532936,38.540546 35.444328,37.162350 
	C42.178989,35.272511 47.844704,32.051289 49.969170,24.311523 
	C54.132885,27.863222 54.119797,29.603117 50.023582,36.489418 
	C45.940403,39.417809 42.033249,42.229004 37.842628,44.522202 
	C30.880188,48.332214 23.390903,48.933430 15.296456,47.078583 
z"/>
<path fill="#A694D3" opacity="1.000000" stroke="none" 
	d="
M20.069605,23.132084 
	C19.813898,32.368958 16.472046,36.446011 7.540622,37.975594 
	C3.950419,33.123108 8.738158,29.574644 9.680326,25.445965 
	C10.957137,25.659718 11.891937,26.020681 12.644741,25.789360 
	C15.154862,25.018045 17.599731,24.034376 20.069605,23.132084 
z"/>
<path fill="#FDFDFE" opacity="1.000000" stroke="none" 
	d="
M20.449818,23.081413 
	C17.599731,24.034376 15.154862,25.018045 12.644741,25.789360 
	C11.891937,26.020681 10.957137,25.659718 9.997316,25.257050 
	C14.291550,20.003881 19.114716,18.757689 25.595829,21.066097 
	C24.284948,21.769485 22.557489,22.400114 20.449818,23.081413 
z"/>
</svg>