<?xml version="1.0" encoding="utf-8"?>
<!-- Uploaded to: SVG Repo, www.svgrepo.com, Generator: SVG Repo Mixer Tools -->
<svg width="800px" height="800px" viewBox="-3.84 0 50.112 50.112" xmlns="http://www.w3.org/2000/svg">
  <g id="Group_1631" data-name="Group 1631" transform="translate(3012.416 -2466.811)">
    <path id="Path_3429" data-name="Path 3429" d="M-2976.663,2485.248c2.176,18.279-8.992,30.555-23.861,28.347-5.972-.888-10.932-4.9-10.932-10.932a10.933,10.933,0,0,1,10.932-10.934c4.556,0,8.268-.47,8.268-6.481" fill="#ffffff" fill-rule="evenodd"/>
    <path id="Path_3430" data-name="Path 3430" d="M-2989.184,2488.32c0,6.011-3.712,6.482-8.268,6.482a10.932,10.932,0,0,0-10.932,10.933c0,6.037,4.96,10.044,10.932,10.932,14.869,2.208,26.037-10.067,23.861-28.347l-8.368-9.029-7.225,9.029" fill="#921975" fill-rule="evenodd"/>
    <path id="Path_3431" data-name="Path 3431" d="M-2997.12,2514.81a24.152,24.152,0,0,1-3.545-.266c-7.028-1.043-11.751-5.818-11.751-11.881a11.906,11.906,0,0,1,11.892-11.894c5.053,0,7.308-.8,7.308-5.521a.96.96,0,0,1,.96-.96.96.96,0,0,1,.96.96c0,7.441-5.553,7.441-9.228,7.441a9.985,9.985,0,0,0-9.972,9.974c0,5.859,5.079,9.234,10.113,9.981a18.831,18.831,0,0,0,16.292-4.933c5.2-5.056,7.563-13.2,6.474-22.35a.96.96,0,0,1,.84-1.067.965.965,0,0,1,1.067.841c1.16,9.747-1.407,18.478-7.043,23.952a20.26,20.26,0,0,1-14.367,5.723" fill="#6f0911" fill-rule="evenodd"/>
    <path id="Path_3432" data-name="Path 3432" d="M-2988.763,2505.834a12,12,0,0,1-9.121,2.143" fill="#760d5a" fill-rule="evenodd"/>
    <path id="Path_3433" data-name="Path 3433" d="M-2995.817,2509.092a15.023,15.023,0,0,1-2.208-.166.961.961,0,0,1-.808-1.091.959.959,0,0,1,1.09-.809,10.994,10.994,0,0,0,8.4-1.961.96.96,0,0,1,1.344.192.96.96,0,0,1-.193,1.345,12.537,12.537,0,0,1-7.628,2.49" fill="#6f0911" fill-rule="evenodd"/>
    <path id="Path_3434" data-name="Path 3434" d="M-2984.064,2488.315s3.584-1.824,3.584-4.448c0,0,3.552,3.872,7.424,0-4.352,0-4.608-10.72-11.008-10.72s-6.656,10.72-11.008,10.72c3.872,3.872,7.424,0,7.424,0,0,2.624,3.584,4.448,3.584,4.448" fill="#ffffff" fill-rule="evenodd"/>
    <path id="Path_3435" data-name="Path 3435" d="M-2978.279,2468.739a.96.96,0,0,1-.958-.917.961.961,0,0,1,.916-1c.148-.006.3-.008.442-.008a.96.96,0,0,1,.96.96.96.96,0,0,1-.96.96c-.118,0-.237,0-.357.007h-.043" fill="#6f0911" fill-rule="evenodd"/>
    <path id="Path_3436" data-name="Path 3436" d="M-2983.3,2474.107a.96.96,0,0,1-.96-.96,6.118,6.118,0,0,1,2-5.006.96.96,0,0,1,1.35.134.961.961,0,0,1-.134,1.352,4.323,4.323,0,0,0-1.294,3.52.96.96,0,0,1-.96.96" fill="#6f0911" fill-rule="evenodd"/>
    <path id="Path_3437" data-name="Path 3437" d="M-2980.992,2491.387s3.584-1.824,3.584-4.448c0,0,3.552,3.872,7.424,0-4.352,0-4.608-10.72-11.008-10.72s-6.656,10.72-11.008,10.72c3.872,3.872,7.424,0,7.424,0,0,2.624,3.584,4.448,3.584,4.448" fill="#5db67d" fill-rule="evenodd"/>
    <path id="Path_3438" data-name="Path 3438" d="M-2987.648,2482.909a.953.953,0,0,1,.351.066.957.957,0,0,1,.609.892c0,1.422,1.624,2.725,2.624,3.344,1-.619,2.624-1.922,2.624-3.344a.961.961,0,0,1,.612-.9.955.955,0,0,1,1.055.246,4.8,4.8,0,0,0,3.015,1.409,3.492,3.492,0,0,0,1.7-.432c-1.35-.921-2.278-2.72-3.186-4.478-1.423-2.758-2.9-5.61-5.819-5.61s-4.4,2.852-5.819,5.61c-.907,1.758-1.836,3.557-3.186,4.478a3.506,3.506,0,0,0,1.7.432,4.8,4.8,0,0,0,3.018-1.412A.963.963,0,0,1-2987.648,2482.909Zm3.584,6.366a.946.946,0,0,1-.436-.1,8.956,8.956,0,0,1-3.73-3.614,6.039,6.039,0,0,1-3.085.99,5.991,5.991,0,0,1-4.436-2,.958.958,0,0,1-.208-1.046.96.96,0,0,1,.887-.592c1.382,0,2.355-1.887,3.483-4.071,1.529-2.962,3.432-6.649,7.525-6.649s6,3.687,7.525,6.65c1.128,2.183,2.1,4.07,3.483,4.07a.96.96,0,0,1,.887.592.957.957,0,0,1-.209,1.046,6.045,6.045,0,0,1-4.436,2,6.038,6.038,0,0,1-3.084-.99,8.967,8.967,0,0,1-3.731,3.614.946.946,0,0,1-.435.1" fill="#6f0911" fill-rule="evenodd"/>
  </g>
</svg>